<svg width="32" height="32" viewBox="0 0 32 32" fill="none" xmlns="http://www.w3.org/2000/svg">
<g clip-path="url(#clip0_8_2)">
<rect width="32" height="32" fill="#FEDD1C"/>
<path d="M8.33398 21.8867H12.2598C12.7806 21.8867 13.2363 21.6686 13.627 21.2324C14.0241 20.7962 14.3301 20.4479 14.5449 20.1875C14.7142 19.9857 14.8737 19.8848 15.0234 19.8848C15.3229 19.8848 15.4727 20.0182 15.4727 20.2852C15.4727 20.3828 15.4629 20.4642 15.4434 20.5293L14.6914 23.1953H5.55078C5.2513 23.1953 5.10156 23.0618 5.10156 22.7949C5.10156 22.5475 5.26432 22.3685 5.58984 22.2578C5.91536 22.1406 6.07812 21.9128 6.07812 21.5742V10.7246C6.07812 10.3926 5.91536 10.168 5.58984 10.0508C5.26432 9.93359 5.10156 9.74805 5.10156 9.49414C5.10156 9.22721 5.2513 9.09375 5.55078 9.09375H8.86133C9.1543 9.09375 9.30078 9.22721 9.30078 9.49414C9.30078 9.74805 9.13802 9.93359 8.8125 10.0508C8.48698 10.168 8.32422 10.3926 8.32422 10.7246L8.33398 21.8867ZM22.9336 9.09375C23.6042 9.09375 24.3073 9.21419 25.043 9.45508C25.7852 9.68945 26.3548 10.1582 26.752 10.8613C27.0645 11.4082 27.2207 12.0658 27.2207 12.834C27.2077 13.5697 26.9961 14.2272 26.5859 14.8066C26.2799 15.2493 25.9609 15.5456 25.6289 15.6953C26.2995 15.9102 26.8659 16.4115 27.3281 17.1992C27.6667 17.8047 27.8359 18.5273 27.8359 19.3672C27.8229 20.1745 27.5918 20.8971 27.1426 21.5352C26.7454 22.0951 26.1855 22.5117 25.4629 22.7852C24.7467 23.0586 24.0892 23.1953 23.4902 23.1953H17.3672C17.0677 23.1953 16.918 23.0618 16.918 22.7949C16.918 22.5475 17.0807 22.3652 17.4062 22.248C17.7318 22.1309 17.8945 21.9062 17.8945 21.5742V10.7148C17.8945 10.3893 17.7318 10.168 17.4062 10.0508C17.0807 9.93359 16.918 9.74805 16.918 9.49414C16.918 9.22721 17.0677 9.09375 17.3672 9.09375H22.9336ZM20.1406 16.4863V22.0918H22.1035C22.5527 22.0918 23.002 22.0267 23.4512 21.8965C23.9004 21.7663 24.2878 21.5417 24.6133 21.2227C25.1146 20.7344 25.3652 20.0801 25.3652 19.2598C25.3652 18.472 25.1016 17.8177 24.5742 17.2969C24.0143 16.7565 23.2591 16.4863 22.3086 16.4863H20.1406ZM20.1406 15.2461H22.5723C23.2689 15.168 23.832 14.9238 24.2617 14.5137C24.7109 14.0775 24.9355 13.4883 24.9355 12.7461C24.9355 12.0234 24.6979 11.4342 24.2227 10.9785C23.7214 10.4967 23.0475 10.2559 22.2012 10.2559H20.1406V15.2461Z" fill="#141414"/>
</g>
<defs>
<clipPath id="clip0_8_2">
<rect width="32" height="32" rx="4" fill="white"/>
</clipPath>
</defs>
</svg>
